<svg width="1400" height="20" viewBox="0 0 1400 20" fill="none" xmlns="http://www.w3.org/2000/svg">
<circle cx="25" cy="-5" r="24.5" fill="#33BF58" fill-opacity="0.1" stroke="#E6E6E6"/>
<circle cx="75" cy="-5" r="24.5" fill="#33BF58" fill-opacity="0.1" stroke="#E6E6E6"/>
<circle cx="125" cy="-5" r="24.5" fill="#33BF58" fill-opacity="0.1" stroke="#E6E6E6"/>
<circle cx="175" cy="-5" r="24.5" fill="#33BF58" fill-opacity="0.1" stroke="#E6E6E6"/>
<circle cx="225" cy="-5" r="24.5" fill="#33BF58" fill-opacity="0.1" stroke="#E6E6E6"/>
<circle cx="275" cy="-5" r="24.5" fill="#33BF58" fill-opacity="0.1" stroke="#E6E6E6"/>
<circle cx="325" cy="-5" r="24.5" fill="#33BF58" fill-opacity="0.1" stroke="#E6E6E6"/>
<circle cx="375" cy="-5" r="24.5" fill="#33BF58" fill-opacity="0.1" stroke="#E6E6E6"/>
<circle cx="425" cy="-5" r="24.5" fill="#33BF58" fill-opacity="0.1" stroke="#E6E6E6"/>
<circle cx="475" cy="-5" r="24.5" fill="#33BF58" fill-opacity="0.1" stroke="#E6E6E6"/>
<circle cx="525" cy="-5" r="24.5" fill="#33BF58" fill-opacity="0.1" stroke="#E6E6E6"/>
<circle cx="575" cy="-5" r="24.5" fill="#33BF58" fill-opacity="0.1" stroke="#E6E6E6"/>
<circle cx="625" cy="-5" r="24.5" fill="#33BF58" fill-opacity="0.1" stroke="#E6E6E6"/>
<circle cx="675" cy="-5" r="24.5" fill="#33BF58" fill-opacity="0.1" stroke="#E6E6E6"/>
<circle cx="725" cy="-5" r="24.5" fill="#33BF58" fill-opacity="0.1" stroke="#E6E6E6"/>
<circle cx="775" cy="-5" r="24.5" fill="#33BF58" fill-opacity="0.1" stroke="#E6E6E6"/>
<circle cx="825" cy="-5" r="24.5" fill="#33BF58" fill-opacity="0.1" stroke="#E6E6E6"/>
<circle cx="875" cy="-5" r="24.5" fill="#33BF58" fill-opacity="0.1" stroke="#E6E6E6"/>
<circle cx="925" cy="-5" r="24.5" fill="#33BF58" fill-opacity="0.1" stroke="#E6E6E6"/>
<circle cx="975" cy="-5" r="24.5" fill="#33BF58" fill-opacity="0.1" stroke="#E6E6E6"/>
<circle cx="1025" cy="-5" r="24.5" fill="#33BF58" fill-opacity="0.1" stroke="#E6E6E6"/>
<circle cx="1075" cy="-5" r="24.5" fill="#33BF58" fill-opacity="0.1" stroke="#E6E6E6"/>
<circle cx="1125" cy="-5" r="24.5" fill="#33BF58" fill-opacity="0.1" stroke="#E6E6E6"/>
<circle cx="1175" cy="-5" r="24.5" fill="#33BF58" fill-opacity="0.1" stroke="#E6E6E6"/>
<circle cx="1225" cy="-5" r="24.5" fill="#33BF58" fill-opacity="0.1" stroke="#E6E6E6"/>
<circle cx="1275" cy="-5" r="24.5" fill="#33BF58" fill-opacity="0.1" stroke="#E6E6E6"/>
<circle cx="1325" cy="-5" r="24.5" fill="#33BF58" fill-opacity="0.1" stroke="#E6E6E6"/>
<circle cx="1375" cy="-5" r="24.5" fill="#33BF58" fill-opacity="0.1" stroke="#E6E6E6"/>
<circle cx="1425" cy="-5" r="24.5" fill="#33BF58" fill-opacity="0.1" stroke="#E6E6E6"/>
</svg>
