<svg width="1440" height="50" viewBox="0 0 1440 50" fill="none" xmlns="http://www.w3.org/2000/svg">
<circle cx="25" cy="25" r="25" fill="white"/>
<circle cx="54.5745" cy="25" r="25" fill="white"/>
<circle cx="84.1489" cy="25" r="25" fill="white"/>
<circle cx="113.723" cy="25" r="25" fill="white"/>
<circle cx="143.298" cy="25" r="25" fill="white"/>
<circle cx="172.872" cy="25" r="25" fill="white"/>
<circle cx="202.447" cy="25" r="25" fill="white"/>
<circle cx="232.021" cy="25" r="25" fill="white"/>
<circle cx="261.596" cy="25" r="25" fill="white"/>
<circle cx="291.17" cy="25" r="25" fill="white"/>
<circle cx="320.745" cy="25" r="25" fill="white"/>
<circle cx="350.319" cy="25" r="25" fill="white"/>
<circle cx="379.894" cy="25" r="25" fill="white"/>
<circle cx="409.468" cy="25" r="25" fill="white"/>
<circle cx="439.042" cy="25" r="25" fill="white"/>
<circle cx="468.617" cy="25" r="25" fill="white"/>
<circle cx="498.191" cy="25" r="25" fill="white"/>
<circle cx="527.766" cy="25" r="25" fill="white"/>
<circle cx="557.34" cy="25" r="25" fill="white"/>
<circle cx="586.915" cy="25" r="25" fill="white"/>
<circle cx="616.489" cy="25" r="25" fill="white"/>
<circle cx="646.064" cy="25" r="25" fill="white"/>
<circle cx="675.638" cy="25" r="25" fill="white"/>
<circle cx="705.213" cy="25" r="25" fill="white"/>
<circle cx="734.787" cy="25" r="25" fill="white"/>
<circle cx="764.362" cy="25" r="25" fill="white"/>
<circle cx="793.936" cy="25" r="25" fill="white"/>
<circle cx="823.51" cy="25" r="25" fill="white"/>
<circle cx="853.085" cy="25" r="25" fill="white"/>
<circle cx="882.659" cy="25" r="25" fill="white"/>
<circle cx="912.234" cy="25" r="25" fill="white"/>
<circle cx="941.808" cy="25" r="25" fill="white"/>
<circle cx="971.383" cy="25" r="25" fill="white"/>
<circle cx="1000.96" cy="25" r="25" fill="white"/>
<circle cx="1030.53" cy="25" r="25" fill="white"/>
<circle cx="1060.11" cy="25" r="25" fill="white"/>
<circle cx="1089.68" cy="25" r="25" fill="white"/>
<circle cx="1119.26" cy="25" r="25" fill="white"/>
<circle cx="1148.83" cy="25" r="25" fill="white"/>
<circle cx="1178.4" cy="25" r="25" fill="white"/>
<circle cx="1207.98" cy="25" r="25" fill="white"/>
<circle cx="1237.55" cy="25" r="25" fill="white"/>
<circle cx="1267.13" cy="25" r="25" fill="white"/>
<circle cx="1296.7" cy="25" r="25" fill="white"/>
<circle cx="1326.28" cy="25" r="25" fill="white"/>
<circle cx="1355.85" cy="25" r="25" fill="white"/>
<circle cx="1385.43" cy="25" r="25" fill="white"/>
<circle cx="1415" cy="25" r="25" fill="white"/>
</svg>
